<svg width="10" height="10" viewBox="0 0 10 10" fill="none" xmlns="http://www.w3.org/2000/svg">
<circle cx="5" cy="5" r="5" fill="#9D0128"/>
<path d="M4.67648 2.00121C3.17284 2.16497 2 3.44159 2 4.99225C2 5.78996 2.31684 6.55499 2.88081 7.11905C3.44478 7.68311 4.2097 8 5.00728 8C6.55435 8 7.83078 6.83032 7.99785 5.32644C8.02792 5.06243 7.73722 4.85189 7.48327 5.00896C7.2105 5.1831 6.89595 5.2807 6.57253 5.29157C6.24911 5.30244 5.92872 5.22616 5.64488 5.07072C5.36104 4.91529 5.12419 4.68641 4.95911 4.40803C4.79404 4.12966 4.70681 3.81203 4.70655 3.48838C4.70655 3.13413 4.81013 2.79994 4.98723 2.52255C5.13759 2.29864 4.97386 1.97782 4.67648 2.00121Z" fill="white"/>
</svg>
