<svg width="10" height="10" viewBox="0 0 10 10" fill="none" xmlns="http://www.w3.org/2000/svg">
<circle cx="5" cy="5" r="5" fill="#F27271"/>
<path d="M5 3.18182C3.99636 3.18182 3.18182 3.99636 3.18182 5C3.18182 6.00364 3.99636 6.81818 5 6.81818C6.00364 6.81818 6.81818 6.00364 6.81818 5C6.81818 3.99636 6.00364 3.18182 5 3.18182ZM1.36364 5.36364H2.09091C2.29091 5.36364 2.45455 5.2 2.45455 5C2.45455 4.8 2.29091 4.63636 2.09091 4.63636H1.36364C1.16364 4.63636 1 4.8 1 5C1 5.2 1.16364 5.36364 1.36364 5.36364ZM7.90909 5.36364H8.63636C8.83636 5.36364 9 5.2 9 5C9 4.8 8.83636 4.63636 8.63636 4.63636H7.90909C7.70909 4.63636 7.54545 4.8 7.54545 5C7.54545 5.2 7.70909 5.36364 7.90909 5.36364ZM4.63636 1.36364V2.09091C4.63636 2.29091 4.8 2.45455 5 2.45455C5.2 2.45455 5.36364 2.29091 5.36364 2.09091V1.36364C5.36364 1.16364 5.2 1 5 1C4.8 1 4.63636 1.16364 4.63636 1.36364ZM4.63636 7.90909V8.63636C4.63636 8.83636 4.8 9 5 9C5.2 9 5.36364 8.83636 5.36364 8.63636V7.90909C5.36364 7.70909 5.2 7.54545 5 7.54545C4.8 7.54545 4.63636 7.70909 4.63636 7.90909ZM2.81455 2.30182C2.7809 2.26811 2.74094 2.24136 2.69695 2.22312C2.65296 2.20487 2.60581 2.19547 2.55818 2.19547C2.51056 2.19547 2.4634 2.20487 2.41941 2.22312C2.37542 2.24136 2.33546 2.26811 2.30182 2.30182C2.26811 2.33546 2.24136 2.37542 2.22312 2.41941C2.20487 2.4634 2.19547 2.51056 2.19547 2.55818C2.19547 2.60581 2.20487 2.65296 2.22312 2.69695C2.24136 2.74094 2.26811 2.7809 2.30182 2.81455L2.68727 3.2C2.82909 3.34182 3.06182 3.34182 3.2 3.2C3.33818 3.05818 3.34182 2.82545 3.2 2.68727L2.81455 2.30182ZM7.31273 6.8C7.27909 6.76629 7.23913 6.73955 7.19514 6.7213C7.15115 6.70305 7.10399 6.69366 7.05636 6.69366C7.00874 6.69366 6.96158 6.70305 6.91759 6.7213C6.8736 6.73955 6.83364 6.76629 6.8 6.8C6.76629 6.83364 6.73955 6.8736 6.7213 6.91759C6.70305 6.96158 6.69366 7.00874 6.69366 7.05636C6.69366 7.10399 6.70305 7.15115 6.7213 7.19514C6.73955 7.23913 6.76629 7.27909 6.8 7.31273L7.18545 7.69818C7.32727 7.84 7.56 7.84 7.69818 7.69818C7.73189 7.66454 7.75864 7.62458 7.77689 7.58059C7.79513 7.5366 7.80453 7.48944 7.80453 7.44182C7.80453 7.39419 7.79513 7.34704 7.77689 7.30305C7.75864 7.25906 7.73189 7.2191 7.69818 7.18545L7.31273 6.8ZM7.69818 2.81455C7.73189 2.7809 7.75864 2.74094 7.77689 2.69695C7.79513 2.65296 7.80453 2.60581 7.80453 2.55818C7.80453 2.51056 7.79513 2.4634 7.77689 2.41941C7.75864 2.37542 7.73189 2.33546 7.69818 2.30182C7.66454 2.26811 7.62458 2.24136 7.58059 2.22312C7.5366 2.20487 7.48944 2.19547 7.44182 2.19547C7.39419 2.19547 7.34704 2.20487 7.30305 2.22312C7.25906 2.24136 7.2191 2.26811 7.18545 2.30182L6.8 2.68727C6.65818 2.82909 6.65818 3.06182 6.8 3.2C6.94182 3.33818 7.17455 3.34182 7.31273 3.2L7.69818 2.81455ZM3.2 7.31273C3.23371 7.27909 3.26046 7.23913 3.2787 7.19514C3.29695 7.15115 3.30634 7.10399 3.30634 7.05636C3.30634 7.00874 3.29695 6.96158 3.2787 6.91759C3.26046 6.8736 3.23371 6.83364 3.2 6.8C3.16636 6.76629 3.1264 6.73955 3.08241 6.7213C3.03842 6.70305 2.99126 6.69366 2.94364 6.69366C2.89601 6.69366 2.84885 6.70305 2.80486 6.7213C2.76087 6.73955 2.72091 6.76629 2.68727 6.8L2.30182 7.18545C2.16 7.32727 2.16 7.56 2.30182 7.69818C2.44364 7.83636 2.67636 7.84 2.81455 7.69818L3.2 7.31273Z" fill="white"/>
</svg>
