<svg width="6" height="6" viewBox="0 0 6 6" fill="none" xmlns="http://www.w3.org/2000/svg">
<path d="M2.67648 0.00121029C1.17284 0.164966 0 1.44159 0 2.99225C0 3.78996 0.316837 4.55499 0.880811 5.11905C1.44478 5.68311 2.2097 6 3.00728 6C4.55435 6 5.83078 4.83032 5.99785 3.32644C6.02792 3.06243 5.73722 2.85189 5.48327 3.00896C5.2105 3.1831 4.89595 3.2807 4.57253 3.29157C4.24911 3.30244 3.92872 3.22616 3.64488 3.07072C3.36104 2.91529 3.12419 2.68641 2.95911 2.40803C2.79404 2.12966 2.70681 1.81203 2.70655 1.48838C2.70655 1.13413 2.81013 0.799935 2.98723 0.522554C3.13759 0.298643 2.97386 -0.0221833 2.67648 0.00121029Z" fill="#AFAFAF"/>
</svg>
