<svg width="8" height="8" viewBox="0 0 8 8" fill="none" xmlns="http://www.w3.org/2000/svg">
<path d="M4 2.18182C2.99636 2.18182 2.18182 2.99636 2.18182 4C2.18182 5.00364 2.99636 5.81818 4 5.81818C5.00364 5.81818 5.81818 5.00364 5.81818 4C5.81818 2.99636 5.00364 2.18182 4 2.18182ZM0.363636 4.36364H1.09091C1.29091 4.36364 1.45455 4.2 1.45455 4C1.45455 3.8 1.29091 3.63636 1.09091 3.63636H0.363636C0.163636 3.63636 0 3.8 0 4C0 4.2 0.163636 4.36364 0.363636 4.36364ZM6.90909 4.36364H7.63636C7.83636 4.36364 8 4.2 8 4C8 3.8 7.83636 3.63636 7.63636 3.63636H6.90909C6.70909 3.63636 6.54545 3.8 6.54545 4C6.54545 4.2 6.70909 4.36364 6.90909 4.36364ZM3.63636 0.363636V1.09091C3.63636 1.29091 3.8 1.45455 4 1.45455C4.2 1.45455 4.36364 1.29091 4.36364 1.09091V0.363636C4.36364 0.163636 4.2 0 4 0C3.8 0 3.63636 0.163636 3.63636 0.363636ZM3.63636 6.90909V7.63636C3.63636 7.83636 3.8 8 4 8C4.2 8 4.36364 7.83636 4.36364 7.63636V6.90909C4.36364 6.70909 4.2 6.54545 4 6.54545C3.8 6.54545 3.63636 6.70909 3.63636 6.90909ZM1.81455 1.30182C1.7809 1.26811 1.74094 1.24136 1.69695 1.22312C1.65296 1.20487 1.60581 1.19547 1.55818 1.19547C1.51056 1.19547 1.4634 1.20487 1.41941 1.22312C1.37542 1.24136 1.33546 1.26811 1.30182 1.30182C1.26811 1.33546 1.24136 1.37542 1.22312 1.41941C1.20487 1.4634 1.19547 1.51056 1.19547 1.55818C1.19547 1.60581 1.20487 1.65296 1.22312 1.69695C1.24136 1.74094 1.26811 1.7809 1.30182 1.81455L1.68727 2.2C1.82909 2.34182 2.06182 2.34182 2.2 2.2C2.33818 2.05818 2.34182 1.82545 2.2 1.68727L1.81455 1.30182ZM6.31273 5.8C6.27909 5.76629 6.23913 5.73955 6.19514 5.7213C6.15115 5.70305 6.10399 5.69366 6.05636 5.69366C6.00874 5.69366 5.96158 5.70305 5.91759 5.7213C5.8736 5.73955 5.83364 5.76629 5.8 5.8C5.76629 5.83364 5.73955 5.8736 5.7213 5.91759C5.70305 5.96158 5.69366 6.00874 5.69366 6.05636C5.69366 6.10399 5.70305 6.15115 5.7213 6.19514C5.73955 6.23913 5.76629 6.27909 5.8 6.31273L6.18545 6.69818C6.32727 6.84 6.56 6.84 6.69818 6.69818C6.73189 6.66454 6.75864 6.62458 6.77689 6.58059C6.79513 6.5366 6.80453 6.48944 6.80453 6.44182C6.80453 6.39419 6.79513 6.34704 6.77689 6.30305C6.75864 6.25906 6.73189 6.2191 6.69818 6.18545L6.31273 5.8ZM6.69818 1.81455C6.73189 1.7809 6.75864 1.74094 6.77689 1.69695C6.79513 1.65296 6.80453 1.60581 6.80453 1.55818C6.80453 1.51056 6.79513 1.4634 6.77689 1.41941C6.75864 1.37542 6.73189 1.33546 6.69818 1.30182C6.66454 1.26811 6.62458 1.24136 6.58059 1.22312C6.5366 1.20487 6.48944 1.19547 6.44182 1.19547C6.39419 1.19547 6.34704 1.20487 6.30305 1.22312C6.25906 1.24136 6.2191 1.26811 6.18545 1.30182L5.8 1.68727C5.65818 1.82909 5.65818 2.06182 5.8 2.2C5.94182 2.33818 6.17455 2.34182 6.31273 2.2L6.69818 1.81455ZM2.2 6.31273C2.23371 6.27909 2.26046 6.23913 2.2787 6.19514C2.29695 6.15115 2.30634 6.10399 2.30634 6.05636C2.30634 6.00874 2.29695 5.96158 2.2787 5.91759C2.26046 5.8736 2.23371 5.83364 2.2 5.8C2.16636 5.76629 2.1264 5.73955 2.08241 5.7213C2.03842 5.70305 1.99126 5.69366 1.94364 5.69366C1.89601 5.69366 1.84885 5.70305 1.80486 5.7213C1.76087 5.73955 1.72091 5.76629 1.68727 5.8L1.30182 6.18545C1.16 6.32727 1.16 6.56 1.30182 6.69818C1.44364 6.83636 1.67636 6.84 1.81455 6.69818L2.2 6.31273Z" fill="#797979"/>
</svg>
